<svg width="2170" height="2233" viewBox="0 0 2170 2233" fill="none" xmlns="http://www.w3.org/2000/svg">
<g clip-path="url(#clip0_1_14)">
<rect width="2170" height="2233" fill="white"/>
<path d="M820.875 2240.83H1178.04V1861.34H820.875V2240.83Z" fill="#E0D0FF"/>
<path d="M820.875 1481.85V1861.34H1178.04V1671.6V1481.85H820.875Z" fill="#E0D0FF"/>
<path d="M1178.04 1481.85L1391.21 1481.85L1480.5 1124.69L1178.04 1124.69H820.875H553V1303.27V1481.85H820.875H1178.04Z" fill="#E0D0FF"/>
<path d="M1178.04 1124.69V946.104C1178.04 921.38 1178.04 897.042 1181.51 874.671H820.875V1124.69H1178.04Z" fill="#E0D0FF"/>
<path d="M820.875 874.671H1181.51C1188.4 830.272 1208.95 793.616 1270.29 777.043L1005.03 511.789C891.111 578.055 820.875 701.117 820.875 874.671Z" fill="#E0D0FF"/>
<path d="M1356.63 767.521H1490.56V467.501C1461.45 463.661 1351.54 455 1235.46 455C1147.88 455 1069.47 474.31 1005.03 511.789L1270.29 777.043C1293.01 770.904 1321.33 767.521 1356.63 767.521Z" fill="#E0D0FF"/>
<path d="M820.058 2206.7H1177.22V1827.21H820.058V2206.7Z" fill="#2F086D"/>
<path d="M820.058 1447.72V1827.21H1177.22V1637.47V1447.72H820.058Z" fill="#4E12A0"/>
<path d="M1177.22 1447.72H1400.45L1489.75 1090.56H1177.22H820.058H552.183V1269.14V1447.72H820.058H1177.22Z" fill="#6314D1"/>
<path d="M1177.22 1090.56V911.973C1177.22 887.249 1177.22 862.911 1180.69 840.54H820.058V1090.56H1177.22Z" fill="#7E29FE"/>
<path d="M820.058 840.54H1180.69C1187.58 796.141 1208.13 759.485 1269.47 742.913L1004.22 477.658C890.294 543.924 820.058 666.986 820.058 840.54Z" fill="#8A4DFF"/>
<path d="M1355.81 733.39H1489.75V433.37C1460.64 429.53 1350.72 420.869 1234.64 420.869C1147.06 420.869 1068.65 440.179 1004.22 477.658L1269.47 742.913C1292.19 736.773 1320.51 733.39 1355.81 733.39Z" fill="#8A4DFF"/>
<path fill-rule="evenodd" clip-rule="evenodd" d="M752.707 43.8733C760.899 43.8739 768.865 46.5558 775.39 51.5095C781.914 56.4631 786.638 63.4161 788.84 71.3066L789.273 73.015L804.857 69.1233C805.996 68.8398 807.182 68.8001 808.337 69.0068C809.493 69.2135 810.591 69.662 811.561 70.3229C812.531 70.9837 813.351 71.8421 813.966 72.8417C814.581 73.8413 814.979 74.9595 815.132 76.1233L815.207 77.2066V92.29C819.905 96.7944 823.755 102.107 826.573 107.973L827.723 110.54H831.873C833.914 110.54 835.884 111.29 837.41 112.646C838.935 114.002 839.91 115.871 840.148 117.898L840.207 118.873V143.873C840.207 145.245 839.869 146.595 839.222 147.805C838.575 149.014 837.639 150.045 836.498 150.807L835.598 151.323L825.865 156.198C821.88 163.907 816.108 170.551 809.032 175.573L806.873 177.023V185.54C806.873 187.581 806.124 189.551 804.767 191.076C803.411 192.602 801.542 193.576 799.515 193.815L798.54 193.873H773.54C771.499 193.873 769.529 193.124 768.004 191.767C766.478 190.411 765.504 188.542 765.265 186.515L765.207 185.54H756.873C756.873 187.581 756.124 189.551 754.767 191.076C753.411 192.602 751.542 193.576 749.515 193.815L748.54 193.873H723.54C721.499 193.873 719.529 193.124 718.004 191.767C716.478 190.411 715.504 188.542 715.265 186.515L715.207 185.54V177.023C709.187 173.174 703.986 168.174 699.905 162.309C695.823 156.444 692.941 149.831 691.423 142.848C686.509 141.386 682.163 138.449 678.974 134.435C675.784 130.421 673.905 125.524 673.59 120.407L673.54 118.873V114.707C673.542 112.583 674.356 110.54 675.814 108.995C677.272 107.451 679.265 106.521 681.385 106.397C683.505 106.272 685.593 106.962 687.222 108.325C688.851 109.689 689.897 111.622 690.148 113.732L690.207 114.707V118.873C690.207 120.107 690.473 121.282 690.957 122.332C692.229 114.829 695.066 107.679 699.284 101.346C703.503 95.0123 709.007 89.6383 715.44 85.5733C714.849 80.3273 715.372 75.0156 716.975 69.9857C718.578 64.9559 721.225 60.3211 724.743 56.3848C728.261 52.4485 732.57 49.2993 737.389 47.1433C742.208 44.9872 747.427 43.8729 752.707 43.8733ZM790.207 110.54C787.997 110.54 785.877 111.418 784.314 112.981C782.751 114.544 781.873 116.663 781.873 118.873C781.873 121.083 782.751 123.203 784.314 124.766C785.877 126.329 787.997 127.207 790.207 127.207C792.417 127.207 794.536 126.329 796.099 124.766C797.662 123.203 798.54 121.083 798.54 118.873C798.54 116.663 797.662 114.544 796.099 112.981C794.536 111.418 792.417 110.54 790.207 110.54ZM752.707 60.54C747.659 60.5399 742.783 62.3725 738.985 65.697C735.187 69.0215 732.725 73.6118 732.057 78.615C736.095 77.6771 740.227 77.2046 744.373 77.2066H772.515L773.098 77.065C772.11 72.3896 769.545 68.1961 765.832 65.1875C762.119 62.1788 757.485 60.538 752.707 60.54Z" fill="#8A4DFF"/>
<path d="M1499.87 41.9661C1509.24 41.9911 1514 42.0411 1518.11 42.1578L1519.72 42.2161C1521.59 42.2828 1523.43 42.3661 1525.66 42.4661C1534.52 42.8828 1540.57 44.2828 1545.88 46.3411C1551.38 48.4578 1556.02 51.3245 1560.65 55.9495C1564.89 60.1153 1568.17 65.1544 1570.26 70.7161C1572.32 76.0245 1573.72 82.0745 1574.13 90.9495C1574.23 93.1661 1574.32 95.0078 1574.38 96.8828L1574.43 98.4995C1574.56 102.599 1574.61 107.358 1574.62 116.733L1574.63 122.949V133.866C1574.65 139.944 1574.59 146.023 1574.44 152.099L1574.39 153.716C1574.32 155.591 1574.24 157.433 1574.14 159.649C1573.72 168.524 1572.31 174.566 1570.26 179.883C1568.17 185.448 1564.89 190.488 1560.65 194.649C1556.48 198.885 1551.44 202.164 1545.88 204.258C1540.57 206.316 1534.52 207.716 1525.66 208.133C1523.68 208.226 1521.7 208.309 1519.72 208.383L1518.11 208.433C1514 208.549 1509.24 208.608 1499.87 208.624L1493.65 208.633H1482.74C1476.66 208.654 1470.58 208.59 1464.5 208.441L1462.88 208.391C1460.9 208.316 1458.93 208.23 1456.95 208.133C1448.08 207.716 1442.03 206.316 1436.72 204.258C1431.15 202.169 1426.12 198.89 1421.96 194.649C1417.72 190.485 1414.43 185.446 1412.34 179.883C1410.28 174.574 1408.88 168.524 1408.47 159.649C1408.37 157.672 1408.29 155.694 1408.22 153.716L1408.17 152.099C1408.02 146.023 1407.95 139.945 1407.97 133.866V116.733C1407.94 110.654 1408 104.576 1408.15 98.4995L1408.21 96.8828C1408.27 95.0078 1408.36 93.1661 1408.46 90.9495C1408.87 82.0745 1410.27 76.0328 1412.33 70.7161C1414.43 65.1487 1417.71 60.108 1421.97 55.9495C1426.13 51.7117 1431.16 48.4327 1436.72 46.3411C1442.03 44.2828 1448.07 42.8828 1456.95 42.4661C1459.17 42.3661 1461.02 42.2828 1462.88 42.2161L1464.5 42.1661C1470.58 42.0181 1476.65 41.9542 1482.73 41.9745L1499.87 41.9661ZM1491.3 83.6328C1480.25 83.6328 1469.65 88.0227 1461.84 95.8367C1454.02 103.651 1449.63 114.249 1449.63 125.299C1449.63 136.35 1454.02 146.948 1461.84 154.762C1469.65 162.576 1480.25 166.966 1491.3 166.966C1502.35 166.966 1512.95 162.576 1520.76 154.762C1528.58 146.948 1532.97 136.35 1532.97 125.299C1532.97 114.249 1528.58 103.651 1520.76 95.8367C1512.95 88.0227 1502.35 83.6328 1491.3 83.6328ZM1491.3 100.299C1494.58 100.299 1497.83 100.945 1500.87 102.201C1503.9 103.457 1506.66 105.298 1508.98 107.619C1511.3 109.94 1513.14 112.696 1514.4 115.729C1515.66 118.761 1516.3 122.012 1516.3 125.295C1516.3 128.578 1515.66 131.829 1514.4 134.863C1513.15 137.896 1511.31 140.652 1508.98 142.974C1506.66 145.296 1503.91 147.138 1500.87 148.395C1497.84 149.652 1494.59 150.299 1491.31 150.299C1484.68 150.299 1478.32 147.666 1473.63 142.977C1468.94 138.289 1466.31 131.93 1466.31 125.299C1466.31 118.669 1468.94 112.31 1473.63 107.622C1478.32 102.933 1484.68 100.299 1491.31 100.299M1535.06 71.1328C1532.29 71.1328 1529.65 72.2303 1527.69 74.1838C1525.74 76.1373 1524.64 78.7868 1524.64 81.5495C1524.64 84.3121 1525.74 86.9616 1527.69 88.9152C1529.65 90.8687 1532.29 91.9661 1535.06 91.9661C1537.82 91.9661 1540.47 90.8687 1542.42 88.9152C1544.38 86.9616 1545.47 84.3121 1545.47 81.5495C1545.47 78.7868 1544.38 76.1373 1542.42 74.1838C1540.47 72.2303 1537.82 71.1328 1535.06 71.1328Z" fill="#6F17EA"/>
<path d="M296.437 376.375C342.462 376.375 379.771 413.683 379.771 459.708C379.771 505.733 342.462 543.041 296.437 543.041C281.71 543.065 267.243 539.168 254.521 531.75L213.137 543.041L224.404 501.641C216.98 488.915 213.079 474.441 213.104 459.708C213.104 413.683 250.412 376.375 296.437 376.375ZM268.037 420.541L266.371 420.608C265.292 420.674 264.237 420.957 263.271 421.441C262.367 421.953 261.541 422.593 260.821 423.341C259.821 424.283 259.254 425.1 258.646 425.891C255.563 429.899 253.904 434.819 253.929 439.875C253.946 443.958 255.012 447.933 256.679 451.65C260.087 459.166 265.696 467.125 273.096 474.5C274.879 476.275 276.629 478.058 278.512 479.716C287.707 487.812 298.664 493.65 310.512 496.766L315.246 497.491C316.787 497.575 318.329 497.458 319.879 497.383C322.306 497.258 324.676 496.601 326.821 495.458C327.912 494.896 328.977 494.284 330.012 493.625C330.012 493.625 330.371 493.391 331.054 492.875C332.179 492.041 332.871 491.45 333.804 490.475C334.496 489.758 335.096 488.916 335.554 487.958C336.204 486.6 336.854 484.008 337.121 481.85C337.321 480.2 337.262 479.3 337.237 478.741C337.204 477.85 336.462 476.925 335.654 476.533L330.804 474.358C330.804 474.358 323.554 471.2 319.121 469.183C318.657 468.98 318.16 468.865 317.654 468.841C317.084 468.783 316.508 468.847 315.964 469.029C315.421 469.212 314.923 469.509 314.504 469.9C314.462 469.883 313.904 470.358 307.879 477.658C307.533 478.123 307.057 478.474 306.511 478.667C305.964 478.86 305.373 478.886 304.812 478.741C304.269 478.596 303.737 478.412 303.221 478.191C302.187 477.758 301.829 477.591 301.121 477.291C296.338 475.204 291.91 472.384 287.996 468.933C286.946 468.016 285.971 467.016 284.971 466.05C281.692 462.91 278.835 459.358 276.471 455.483L275.979 454.691C275.626 454.159 275.34 453.585 275.129 452.983C274.812 451.758 275.637 450.775 275.637 450.775C275.637 450.775 277.662 448.558 278.604 447.358C279.521 446.191 280.296 445.058 280.796 444.25C281.779 442.666 282.087 441.041 281.571 439.783C279.237 434.083 276.821 428.408 274.337 422.775C273.846 421.658 272.387 420.858 271.062 420.7C270.612 420.65 270.162 420.6 269.712 420.566C268.593 420.511 267.472 420.522 266.354 420.6L268.037 420.541Z" fill="#4E12A0"/>
<path d="M2138.92 1063.54L2144.79 1029.54C2145.14 1027.55 2145.04 1025.5 2144.51 1023.55C2143.99 1021.6 2143.04 1019.79 2141.74 1018.24C2140.43 1016.69 2138.81 1015.45 2136.98 1014.59C2135.14 1013.74 2133.15 1013.29 2131.12 1013.29H2087.95C2086.94 1013.29 2085.95 1013.07 2085.03 1012.65C2084.12 1012.23 2083.31 1011.61 2082.65 1010.84C2082 1010.07 2081.53 1009.17 2081.26 1008.2C2080.99 1007.23 2080.94 1006.21 2081.1 1005.22L2086.62 971.508C2087.52 966.035 2087.27 960.435 2085.87 955.067C2085.28 952.848 2084.13 950.817 2082.54 949.16C2080.95 947.503 2078.97 946.276 2076.77 945.592L2075.57 945.2C2072.83 944.322 2069.87 944.525 2067.28 945.767C2064.45 947.133 2062.38 949.625 2061.62 952.583L2057.65 967.867C2056.39 972.73 2054.55 977.427 2052.18 981.858C2048.72 988.333 2043.37 993.525 2037.81 998.317L2025.82 1008.65C2024.15 1010.09 2022.85 1011.9 2022.03 1013.94C2021.2 1015.97 2020.86 1018.18 2021.05 1020.37L2027.82 1098.64C2028.11 1102.1 2029.7 1105.33 2032.26 1107.68C2034.82 1110.03 2038.17 1111.33 2041.64 1111.33H2080.37C2109.39 1111.33 2134.15 1091.12 2138.92 1063.54Z" fill="#6F17EA"/>
<path fill-rule="evenodd" clip-rule="evenodd" d="M1994.73 1007.04C1996.34 1006.97 1997.92 1007.53 1999.13 1008.59C2000.34 1009.65 2001.1 1011.14 2001.23 1012.75L2009.32 1106.38C2009.45 1107.78 2009.3 1109.19 2008.88 1110.52C2008.45 1111.86 2007.76 1113.09 2006.84 1114.15C2005.92 1115.21 2004.8 1116.07 2003.54 1116.67C2002.28 1117.28 2000.9 1117.63 1999.5 1117.69C1998.1 1117.75 1996.71 1117.52 1995.4 1117.03C1994.09 1116.53 1992.89 1115.77 1991.89 1114.8C1990.88 1113.82 1990.08 1112.65 1989.54 1111.36C1989 1110.07 1988.73 1108.68 1988.75 1107.28V1013.28C1988.75 1011.67 1989.37 1010.12 1990.49 1008.96C1991.6 1007.8 1993.12 1007.11 1994.73 1007.04Z" fill="#6F17EA"/>
<g clip-path="url(#clip1_1_14)">
<path d="M194.313 1009.97C195.48 1016.69 196.061 1023.49 196.05 1030.3C196.05 1060.72 185.175 1086.45 166.25 1103.86H166.275C149.725 1119.15 126.975 1128 100 1128C73.4784 1128 48.043 1117.46 29.2893 1098.71C10.5357 1079.96 0 1054.52 0 1028C0 1001.48 10.5357 976.043 29.2893 957.289C48.043 938.536 73.4784 928 100 928C124.822 927.724 148.79 937.048 166.9 954.025L138.35 982.575C128.028 972.741 114.255 967.354 100 967.575C73.9125 967.575 51.75 985.175 43.85 1008.87C39.6687 1021.3 39.6687 1034.74 43.85 1047.16H43.8875C51.825 1070.82 73.95 1088.42 100.038 1088.42C113.513 1088.42 125.088 1084.97 134.063 1078.87H134.025C139.237 1075.42 143.696 1070.95 147.131 1065.73C150.567 1060.51 152.908 1054.64 154.013 1048.49H100V1009.99L194.313 1009.97Z" fill="#7E29FE"/>
</g>
<path d="M1929 445C1922.37 445 1916.01 447.634 1911.32 452.322C1906.63 457.011 1904 463.37 1904 470C1904 476.63 1906.63 482.989 1911.32 487.678C1916.01 492.366 1922.37 495 1929 495C1935.63 495 1941.99 492.366 1946.68 487.678C1951.37 482.989 1954 476.63 1954 470C1954 463.37 1951.37 457.011 1946.68 452.322C1941.99 447.634 1935.63 445 1929 445ZM1929 511.667C1917.95 511.667 1907.35 507.277 1899.54 499.463C1891.72 491.649 1887.33 481.051 1887.33 470C1887.33 458.949 1891.72 448.351 1899.54 440.537C1907.35 432.723 1917.95 428.333 1929 428.333C1940.05 428.333 1950.65 432.723 1958.46 440.537C1966.28 448.351 1970.67 458.949 1970.67 470C1970.67 481.051 1966.28 491.649 1958.46 499.463C1950.65 507.277 1940.05 511.667 1929 511.667ZM1929 407.5C1887.33 407.5 1851.75 433.417 1837.33 470C1851.75 506.583 1887.33 532.5 1929 532.5C1970.67 532.5 2006.25 506.583 2020.67 470C2006.25 433.417 1970.67 407.5 1929 407.5Z" fill="#A680FF"/>
</g>
<defs>
<clipPath id="clip0_1_14">
<rect width="2170" height="2233" fill="white"/>
</clipPath>
<clipPath id="clip1_1_14">
<rect width="200" height="200" fill="white" transform="translate(0 928)"/>
</clipPath>
</defs>
</svg>
